# xmcd
#
# Track frame offsets: 
#        150
#        17127
#        32216
#        44081
#        58485
#        76441
#        90234
#        106713
#        130355
#        146746
#        163068
#        179111
#        218257
#
# Disc length: 3064 seconds
#
# Revision: 0
# Processed by: cddbd v1.5.2PL0 Copyright (c) Steve Scherf et al.
# Submitted via: ExactAudioCopy v0.99pb5
#
DISCID=b90bf60d
DTITLE=BluesMotel - Bound To Drive You Crazy
DYEAR=2011
DGENRE=Blues
TTITLE0=Hard Lovin'
TTITLE1=Can You Take It
TTITLE2=Insomniac Blues
TTITLE3=Who's Been Loving You?
TTITLE4=Woman On My Mind
TTITLE5=Crosswires
TTITLE6=The Geddup Man
TTITLE7=Bound To Drive You Crazy
TTITLE8=High Tide
TTITLE9=Washed Out Like Dirt
TTITLE10=The Blues I've Seen
TTITLE11=Bleedin' Heart
TTITLE12=Eschatology Blues
EXTD=
EXTT0=
EXTT1=
EXTT2=
EXTT3=
EXTT4=
EXTT5=
EXTT6=
EXTT7=
EXTT8=
EXTT9=
EXTT10=
EXTT11=
EXTT12=
PLAYORDER=
